<?xml version="1.0" encoding="UTF-8" standalone="no"?>
<!-- Created with Inkscape (http://www.inkscape.org/) -->
<svg
   xmlns:dc="http://purl.org/dc/elements/1.1/"
   xmlns:cc="http://web.resource.org/cc/"
   xmlns:rdf="http://www.w3.org/1999/02/22-rdf-syntax-ns#"
   xmlns:svg="http://www.w3.org/2000/svg"
   xmlns="http://www.w3.org/2000/svg"
   xmlns:sodipodi="http://inkscape.sourceforge.net/DTD/sodipodi-0.dtd"
   xmlns:inkscape="http://www.inkscape.org/namespaces/inkscape"
   width="210mm"
   height="297mm"
   id="svg2"
   sodipodi:version="0.32"
   inkscape:version="0.42"
   sodipodi:docbase="/home/shred"
   sodipodi:docname="jinn.svg">
  <defs
     id="defs4" />
  <sodipodi:namedview
     id="base"
     pagecolor="#ffffff"
     bordercolor="#666666"
     borderopacity="1.0"
     inkscape:pageopacity="0.0"
     inkscape:pageshadow="2"
     inkscape:zoom="0.25000000"
     inkscape:cx="377.88069"
     inkscape:cy="561.79894"
     inkscape:document-units="px"
     inkscape:current-layer="layer1"
     inkscape:window-width="1280"
     inkscape:window-height="974"
     inkscape:window-x="0"
     inkscape:window-y="0" />
  <metadata
     id="metadata7">
    <rdf:RDF>
      <cc:Work
         rdf:about="">
        <dc:format>image/svg+xml</dc:format>
        <dc:type
           rdf:resource="http://purl.org/dc/dcmitype/StillImage" />
      </cc:Work>
    </rdf:RDF>
  </metadata>
  <g
     inkscape:label="Ebene 1"
     inkscape:groupmode="layer"
     id="layer1">
    <path
       style="fill:#516dcd;fill-opacity:1.0000000;fill-rule:evenodd;stroke:#000000;stroke-width:4.0000000;stroke-linecap:round;stroke-linejoin:round;stroke-opacity:1.0000000;stroke-miterlimit:4.0000000;stroke-dasharray:none"
       d="M 154.04826,483.64630 C 267.09830,460.32617 464.12101,480.35255 576.29203,487.68692 C 610.82377,489.94479 597.39844,812.13508 576.79711,829.62355 C 558.32069,845.30817 171.45719,852.50873 149.50258,831.13878 C 126.69327,808.93688 112.61419,492.19338 154.04826,483.64630 z "
       id="path1369"
       sodipodi:nodetypes="cssss" />
    <path
       style="fill:#516dcd;fill-opacity:1.0000000;fill-rule:evenodd;stroke:#000000;stroke-width:4.0000000;stroke-linecap:butt;stroke-linejoin:miter;stroke-opacity:1.0000000;stroke-miterlimit:4.0000000;stroke-dasharray:none"
       d="M 265.67012,492.73767 C 262.13459,479.85822 268.19550,473.03970 268.70057,458.39248 C 269.24713,442.54219 259.56053,435.98838 260.06859,426.08790 C 261.11751,405.64782 268.48360,376.11951 277.75134,359.49906 C 342.92351,242.62144 453.67193,308.03592 458.18032,363.92799 C 458.75642,371.07013 477.99911,427.81095 446.48743,482.63615 C 415.42524,536.67931 402.30039,560.73588 375.27675,593.64125 C 366.68803,604.09931 332.07337,616.52558 317.69805,596.67171 C 296.28367,567.09613 275.54533,528.71163 265.67012,492.73767 z "
       id="path1349"
       sodipodi:nodetypes="cssssssss" />
    <path
       style="fill:#000000;fill-opacity:1.0000000;fill-rule:evenodd;stroke:#000000;stroke-width:1.0000000px;stroke-linecap:butt;stroke-linejoin:miter;stroke-opacity:1.0000000"
       d="M 294.43916,498.83412 L 385.89350,497.27828 L 389.87320,645.76563 L 374.74629,514.96103 L 303.04576,516.47626 L 289.89855,644.86208 L 294.43916,498.83412 z "
       id="path1367"
       sodipodi:nodetypes="ccccccc" />
    <path
       style="fill:#516dcd;fill-opacity:1.0000000;fill-rule:evenodd;stroke:#000000;stroke-width:4.0000000;stroke-linecap:round;stroke-linejoin:miter;stroke-opacity:1.0000000;stroke-miterlimit:4.0000000;stroke-dasharray:none"
       d="M 438.89098,406.87471 C 452.02296,391.46988 469.42153,382.31322 478.32246,398.29857 C 490.69683,420.52192 467.03525,453.38504 457.07372,479.10062 C 447.17578,504.65204 452.72806,497.11289 447.98235,503.34428 C 439.44664,514.55214 429.29452,499.05113 427.27422,492.23260"
       id="path1351"
       sodipodi:nodetypes="cssss" />
    <path
       style="fill:none;fill-opacity:0.75000000;fill-rule:evenodd;stroke:#000000;stroke-width:3.0000000;stroke-linecap:butt;stroke-linejoin:miter;stroke-opacity:1.0000000;stroke-miterlimit:4.0000000;stroke-dasharray:none"
       d="M 441.42651,467.61077 C 445.08831,433.51812 447.38146,393.52572 470.23616,410.95085"
       id="path1353"
       sodipodi:nodetypes="cs" />
    <path
       style="fill:none;fill-opacity:0.75000000;fill-rule:evenodd;stroke:#000000;stroke-width:3.0000000;stroke-linecap:butt;stroke-linejoin:miter;stroke-opacity:1.0000000;stroke-miterlimit:4.0000000;stroke-dasharray:none"
       d="M 451.04326,417.03715 C 459.12448,420.57268 464.66002,438.23512 463.14479,448.84172"
       id="path1355"
       sodipodi:nodetypes="cs" />
    <path
       style="fill:none;fill-opacity:0.75000000;fill-rule:evenodd;stroke:#000000;stroke-width:3.0000000;stroke-linecap:round;stroke-linejoin:miter;stroke-opacity:1.0000000;stroke-miterlimit:4.0000000;stroke-dasharray:none"
       d="M 260.61936,424.55238 C 277.28688,438.18944 306.93980,440.86647 321.71328,441.75035"
       id="path1357"
       sodipodi:nodetypes="cs" />
    <path
       style="fill:none;fill-opacity:0.75000000;fill-rule:evenodd;stroke:#000000;stroke-width:3.0000000;stroke-linecap:round;stroke-linejoin:miter;stroke-opacity:1.0000000;stroke-miterlimit:4.0000000;stroke-dasharray:none"
       d="M 353.03309,441.24528 C 374.62510,437.83601 400.39288,437.15815 416.17777,425.55745 C 424.77453,419.23948 425.74885,414.85441 424.20823,409.30872"
       id="path1359"
       sodipodi:nodetypes="css" />
    <path
       style="fill:#516dcd;fill-opacity:1.0000000;fill-rule:evenodd;stroke:#000000;stroke-width:4.0000000;stroke-linecap:round;stroke-linejoin:round;stroke-opacity:1.0000000;marker-start:none;stroke-miterlimit:4.0000000;stroke-dasharray:none"
       d="M 326.76404,454.35188 C 318.33447,472.93373 315.62217,503.83400 317.89501,518.35494 C 335.11810,515.34973 342.90618,503.82904 353.00770,493.98006 C 350.98740,486.15137 350.34616,479.90873 348.19959,476.12066"
       id="path1361"
       sodipodi:nodetypes="cccc" />
    <path
       style="fill:none;fill-opacity:0.75000000;fill-rule:evenodd;stroke:#000000;stroke-width:3.0000000;stroke-linecap:round;stroke-linejoin:miter;stroke-opacity:1.0000000;stroke-miterlimit:4.0000000;stroke-dasharray:none"
       d="M 310.13714,528.57778 L 364.18537,528.54732"
       id="path1363"
       sodipodi:nodetypes="cc" />
    <path
       style="fill:none;fill-opacity:0.75000000;fill-rule:evenodd;stroke:#000000;stroke-width:6.0000000;stroke-linecap:round;stroke-linejoin:miter;stroke-miterlimit:4.0000000;stroke-dasharray:none;stroke-opacity:1.0000000"
       d="M 335.33004,556.65900 L 339.93664,556.66408"
       id="path1365"
       sodipodi:nodetypes="cc" />
    <path
       style="fill:none;fill-opacity:0.75000000;fill-rule:evenodd;stroke:#000000;stroke-width:4.0000000;stroke-linecap:round;stroke-linejoin:round;stroke-opacity:1.0000000;stroke-miterlimit:4.0000000;stroke-dasharray:none"
       d="M 276.27672,446.28081 C 289.91378,445.01812 308.62191,449.55365 316.70313,454.35188"
       id="path1371"
       sodipodi:nodetypes="cs" />
    <path
       style="fill:none;fill-opacity:0.75000000;fill-rule:evenodd;stroke:#000000;stroke-width:4.0000000;stroke-linecap:round;stroke-linejoin:round;stroke-opacity:1.0000000;stroke-miterlimit:4.0000000;stroke-dasharray:none"
       d="M 361.59400,453.88741 C 379.37763,445.03842 394.85353,441.97751 405.58640,444.75543"
       id="path1373"
       sodipodi:nodetypes="cs" />
    <path
       sodipodi:type="arc"
       style="fill:#000000;fill-opacity:1.0000000;fill-rule:evenodd;stroke:none;stroke-width:1.0000000px;stroke-linecap:butt;stroke-linejoin:miter;stroke-opacity:1.0000000"
       id="path1375"
       sodipodi:cx="300.77292"
       sodipodi:cy="463.44324"
       sodipodi:rx="5.8083773"
       sodipodi:ry="12.626906"
       d="M 306.58130 463.44324 A 5.8083773 12.626906 0 1 1  294.96454,463.44324 A 5.8083773 12.626906 0 1 1  306.58130 463.44324 z"
       transform="translate(2.000000,-2.000000)" />
    <path
       d="M 306.58130 463.44324 A 5.8083773 12.626906 0 1 1  294.96454,463.44324 A 5.8083773 12.626906 0 1 1  306.58130 463.44324 z"
       sodipodi:ry="12.626906"
       sodipodi:rx="5.8083773"
       sodipodi:cy="463.44324"
       sodipodi:cx="300.77292"
       id="path3557"
       style="fill:#000000;fill-opacity:1.0000000;fill-rule:evenodd;stroke:none;stroke-width:1.0000000px;stroke-linecap:butt;stroke-linejoin:miter;stroke-opacity:1.0000000"
       sodipodi:type="arc"
       transform="translate(79.00000,-3.500000)" />
    <rect
       style="fill:#ffffff;fill-opacity:1.0000000;stroke:none;stroke-linecap:round;stroke-linejoin:round"
       id="rect3559"
       width="158.00000"
       height="488.00000"
       x="52.000000"
       y="396.36218" />
    <rect
       style="fill:#ffffff;fill-opacity:1.0000000;stroke:none;stroke-linecap:round;stroke-linejoin:round"
       id="rect3561"
       width="92.000000"
       height="497.00000"
       x="524.00000"
       y="359.36218" />
    <rect
       style="fill:#ffffff;fill-opacity:1.0000000;stroke:none;stroke-linecap:round;stroke-linejoin:round"
       id="rect3563"
       width="527.00000"
       height="194.00000"
       x="118.00000"
       y="676.36218" />
  </g>
</svg>
